<svg xmlns="http://www.w3.org/2000/svg" viewBox="0 0 128 128" role="img" aria-label="Earth Living">
  <rect width="128" height="128" rx="22" fill="#101715"/>
  <path d="M22 82c19-4 26-25 44-28 16-3 29 9 40 22-8 21-26 35-48 35-15 0-28-7-36-29Z" fill="#7d9b55"/>
  <path d="M22 72c5-31 27-55 54-55 15 0 28 7 36 19-12-3-23 1-31 11-12 15-29 16-43 10-6-3-11 5-16 15Z" fill="#d6c28f"/>
  <path d="M38 89c20 8 40 4 60-13-8 21-24 35-45 35-7 0-13-1-19-4 1-6 2-12 4-18Z" fill="#4f7d63"/>
  <circle cx="89" cy="36" r="7" fill="#f2e2a2"/>
</svg>
